<svg width="18" height="18" viewBox="0 0 18 18" fill="none" xmlns="http://www.w3.org/2000/svg">
<path d="M6.58824 7.37368V12.3722C6.58824 12.5379 6.52006 12.6968 6.39872 12.814C6.27737 12.9312 6.11279 12.997 5.94118 12.997H4.64706C4.47545 12.997 4.31087 12.9312 4.18952 12.814C4.06817 12.6968 4 12.5379 4 12.3722V7.9985C4 7.83279 4.06817 7.67386 4.18952 7.55669C4.31087 7.43951 4.47545 7.37368 4.64706 7.37368H6.58824ZM6.58824 7.37368C7.27468 7.37368 7.93301 7.11037 8.41839 6.64167C8.90378 6.17297 9.17647 5.53728 9.17647 4.87444V4.24962C9.17647 3.9182 9.31282 3.60036 9.55551 3.36601C9.7982 3.13166 10.1274 3 10.4706 3C10.8138 3 11.143 3.13166 11.3857 3.36601C11.6284 3.60036 11.7647 3.9182 11.7647 4.24962V7.37368H13.7059C14.0491 7.37368 14.3783 7.50534 14.621 7.73969C14.8637 7.97404 15 8.29189 15 8.62331L14.3529 11.7474C14.2599 12.1307 14.0834 12.4598 13.85 12.6852C13.6165 12.9106 13.3389 13.02 13.0588 12.997H8.52941C8.01458 12.997 7.52083 12.7995 7.15679 12.448C6.79275 12.0965 6.58824 11.6197 6.58824 11.1226" stroke="#2C3038" stroke-width="1.5" stroke-linecap="round" stroke-linejoin="round"/>
</svg>
