<svg width="62" height="62" viewBox="0 0 62 62" fill="none" xmlns="http://www.w3.org/2000/svg">
<path d="M7.63281 30.5318H10.1771M30.5318 7.63281V10.1771M50.8865 30.5318H53.4308M30.5318 50.8865V53.4308M14.2481 14.2481L16.0291 16.0291M46.8156 14.2481L45.0345 16.0291M45.0345 45.0345L46.8156 46.8156M16.0291 45.0345L14.2481 46.8156M20.3545 30.5318C20.3545 33.231 21.4267 35.8197 23.3354 37.7283C25.244 39.6369 27.8326 40.7092 30.5318 40.7092C33.231 40.7092 35.8197 39.6369 37.7283 37.7283C39.6369 35.8197 40.7092 33.231 40.7092 30.5318C40.7092 27.8326 39.6369 25.244 37.7283 23.3354C35.8197 21.4267 33.231 20.3545 30.5318 20.3545C27.8326 20.3545 25.244 21.4267 23.3354 23.3354C21.4267 25.244 20.3545 27.8326 20.3545 30.5318Z" stroke="#FFA538" stroke-width="5.08867" stroke-linecap="round" stroke-linejoin="round"/>
</svg>
