<svg width="62" height="62" viewBox="0 0 62 62" fill="none" xmlns="http://www.w3.org/2000/svg">
<path d="M30.5263 7.63364C30.8622 7.63364 31.1955 7.63364 31.5262 7.63364C28.2576 10.6708 26.1566 14.7574 25.5885 19.1829C25.0203 23.6085 26.0209 28.0932 28.4164 31.8576C30.8118 35.6219 34.4506 38.4278 38.7002 39.7876C42.9499 41.1474 47.5416 40.975 51.6774 39.3004C50.0865 43.1284 47.4863 46.4526 44.1542 48.9187C40.8222 51.3847 36.8832 52.9 32.7574 53.3029C28.6317 53.7058 24.474 52.9812 20.7278 51.2064C16.9816 49.4316 13.7874 46.6731 11.486 43.2253C9.18458 39.7775 7.86226 35.7696 7.66007 31.6292C7.45788 27.4888 8.38342 23.3711 10.3379 19.7154C12.2925 16.0598 15.2027 13.0033 18.7581 10.8719C22.3136 8.74053 26.3809 7.61428 30.5263 7.61328V7.63364Z" stroke="#12A3B9" stroke-width="5.08867" stroke-linecap="round" stroke-linejoin="round"/>
</svg>
