<svg width="18" height="18" viewBox="0 0 18 18" fill="none" xmlns="http://www.w3.org/2000/svg">
<path d="M9 7.75V9.625H10.2903M5.77419 4L4 5.25M12.2258 4L14 5.25M4.48387 9.625C4.48387 10.1995 4.60068 10.7684 4.82764 11.2992C5.0546 11.83 5.38725 12.3123 5.80661 12.7186C6.22598 13.1248 6.72383 13.4471 7.27175 13.667C7.81967 13.8868 8.40693 14 9 14C9.59307 14 10.1803 13.8868 10.7282 13.667C11.2762 13.4471 11.774 13.1248 12.1934 12.7186C12.6127 12.3123 12.9454 11.83 13.1724 11.2992C13.3993 10.7684 13.5161 10.1995 13.5161 9.625C13.5161 9.05047 13.3993 8.48156 13.1724 7.95076C12.9454 7.41996 12.6127 6.93766 12.1934 6.53141C11.774 6.12515 11.2762 5.80289 10.7282 5.58303C10.1803 5.36316 9.59307 5.25 9 5.25C8.40693 5.25 7.81967 5.36316 7.27175 5.58303C6.72383 5.80289 6.22598 6.12515 5.80661 6.53141C5.38725 6.93766 5.0546 7.41996 4.82764 7.95076C4.60068 8.48156 4.48387 9.05047 4.48387 9.625Z" stroke="#2C3038" stroke-width="1.5" stroke-linecap="round" stroke-linejoin="round"/>
</svg>
